<svg xmlns="http://www.w3.org/2000/svg" xmlns:xlink="http://www.w3.org/1999/xlink" width="50" height="50" viewBox="0 0 50 50">
  <defs>
    <clipPath id="clip-path">
      <rect id="Rectangle_676" data-name="Rectangle 676" width="30" height="30" transform="translate(985 917)" fill="#fff" stroke="#707070" stroke-width="1"/>
    </clipPath>
  </defs>
  <g id="IconThree" transform="translate(-975 -907)">
    <rect id="Rectangle_675" data-name="Rectangle 675" width="50" height="50" transform="translate(975 907)" fill="#c0a885"/>
    <g id="Mask_Group_67" data-name="Mask Group 67" clip-path="url(#clip-path)">
      <path id="shopping-cart" d="M8.672,22.226a.987.987,0,0,1,0-1.974c3.643.013,13.25,0,17.009.006a2.185,2.185,0,0,0,2.139-1.7l2.134-9.242A1.776,1.776,0,0,0,28.23,7.139c-1.512,0-14.346-.058-20.92-.084L6.268,3.188A2.128,2.128,0,0,0,4.218,1.619H.879a.879.879,0,0,0,0,1.759H4.218a.366.366,0,0,1,.353.269l4,14.848a2.745,2.745,0,0,0-2.646,2.791,2.759,2.759,0,0,0,2.746,2.7H9.954a3.078,3.078,0,1,0,5.561,0h5.553a3.078,3.078,0,1,0,5.538-.046.879.879,0,0,0-.28-1.712ZM14.054,25.3a1.319,1.319,0,1,1-1.32-1.319h0A1.321,1.321,0,0,1,14.054,25.3Zm9.794,1.319a1.319,1.319,0,0,1-.021-2.638h.043a1.319,1.319,0,0,1-.021,2.638ZM28.237,8.9a.014.014,0,0,1,0,.015l-.9,3.894H24.3l.519-3.929,3.409.014a.014.014,0,0,1,.013.007ZM19.171,18.5V14.571H22.29L21.772,18.5Zm-4.361,0-.522-3.927h3.124V18.5Zm-4.048,0h0a.477.477,0,0,1-.459-.351l-.964-3.576h3.177l.522,3.927Zm3.292-5.686-.529-3.975,3.887.016v3.959Zm5.117,0V8.861l3.871.016-.519,3.936ZM11.75,8.831l.53,3.982H8.862l-1.078-4ZM25.681,18.5H23.546l.518-3.927h2.871l-.829,3.589A.434.434,0,0,1,25.681,18.5Z" transform="translate(985 917)" fill="#fff"/>
    </g>
  </g>
</svg>
