<svg id="RingsDecor" xmlns="http://www.w3.org/2000/svg" width="365.184" height="365.183" viewBox="0 0 365.184 365.183">
  <g id="Group_11" data-name="Group 11" transform="translate(-3799.945 -1906.754)" opacity="0.05">
    <path id="Path_11" data-name="Path 11" d="M3838.181,2406.883l10.941-10.94L3838.181,2385a15.449,15.449,0,1,0,0,21.881m23.5-6.753-15.129,15.129a27.289,27.289,0,1,1,0-38.633l15.129,15.128,4.188,4.188Z" transform="translate(0 -306.603)"/>
    <path id="Path_12" data-name="Path 12" d="M4090.567,2233.7l-10.941-10.941-10.94,10.941h0a15.542,15.542,0,0,0,0,21.881h0l.046.052a15.531,15.531,0,0,0,21.831-.052h.005a15.541,15.541,0,0,0,0-21.881m-9.313-123.665-1.628-1.623-1.628,1.623v27.3a46.068,46.068,0,0,1-8.976,27.32,47.051,47.051,0,0,1-16.442,14,34.657,34.657,0,0,0,2.647,2.947l24.4,24.4,24.4-24.4a35.6,35.6,0,0,0,2.653-2.947,47.014,47.014,0,0,1-16.448-14,46.079,46.079,0,0,1-8.976-27.32Zm2.56-14.2,7.555,7.559,1.737,1.738v32.2a34.29,34.29,0,0,0,6.659,20.33,34.783,34.783,0,0,0,17.493,12.575l6.7,2.13-3.232,6.225a45.506,45.506,0,0,1-3.727,6.018,46.561,46.561,0,0,1-4.6,5.377l-24.394,24.394,10.94,10.941a27.385,27.385,0,0,1,0,38.632h0a27.363,27.363,0,0,1-38.634,0l-1.73-1.727v-.176a27.393,27.393,0,0,1,1.726-36.73h0l10.942-10.941-24.4-24.394a47,47,0,0,1-4.591-5.377,45.871,45.871,0,0,1-3.727-6.018l-3.232-6.225,6.7-2.13a34.775,34.775,0,0,0,17.491-12.575,34.294,34.294,0,0,0,6.66-20.33v-32.2l1.737-1.738,7.554-7.559,4.187-4.188Zm-24.874-4.86,1.623-1.634-1.623-1.624h-27.3a46.077,46.077,0,0,1-27.32-8.975,46.926,46.926,0,0,1-14-16.452,37.591,37.591,0,0,0-2.957,2.658l-24.4,24.394,24.4,24.4a35.359,35.359,0,0,0,2.957,2.648,46.989,46.989,0,0,1,14-16.442,46.066,46.066,0,0,1,27.32-8.975Zm14.193,2.554-7.554,7.56-1.738,1.737h-32.2a34.231,34.231,0,0,0-20.331,6.659,34.8,34.8,0,0,0-12.579,17.487l-2.125,6.7-6.231-3.226a46.482,46.482,0,0,1-6.014-3.733,45.978,45.978,0,0,1-5.377-4.591l-28.587-28.593-4.187-4.187,4.187-4.188,28.587-28.592a47.058,47.058,0,0,1,5.377-4.591,45,45,0,0,1,6.019-3.723l6.226-3.237,2.125,6.7a34.784,34.784,0,0,0,12.579,17.5,34.3,34.3,0,0,0,20.331,6.659h32.2l1.738,1.737,7.554,7.548,4.188,4.188Zm6.493-137.6,10.941-10.94a15.541,15.541,0,0,0,0-21.881h-.005a15.543,15.543,0,0,0-21.831-.042l-.046.042v.01a15.53,15.53,0,0,0,0,21.871h0Zm11.743,119.374-7.555,7.548-4.188,4.188-4.187-4.188-7.554-7.548-1.737-1.738v-32.2a34.25,34.25,0,0,0-6.66-20.33A34.79,34.79,0,0,0,4042,2008.445l-6.7-2.121,3.232-6.235a45.718,45.718,0,0,1,3.727-6.008,46.979,46.979,0,0,1,4.591-5.377l24.4-24.4-10.942-10.94h0a27.38,27.38,0,0,1-1.726-36.72v-.175l1.73-1.738a27.387,27.387,0,0,1,38.634,0h0a27.385,27.385,0,0,1,0,38.633l-10.94,10.94,24.394,24.4-.01.01a45.894,45.894,0,0,1,8.334,11.375l3.232,6.235-6.7,2.121a34.8,34.8,0,0,0-17.493,12.584,34.245,34.245,0,0,0-6.659,20.33v32.2Zm-11.743-5.016,1.628-1.623v-27.3a46.078,46.078,0,0,1,8.976-27.32,46.773,46.773,0,0,1,16.453-14,33.394,33.394,0,0,0-2.632-2.957h-.026l-24.4-24.394-24.4,24.394a34.788,34.788,0,0,0-2.647,2.957,46.839,46.839,0,0,1,16.442,14,46.068,46.068,0,0,1,8.976,27.32v27.3Zm14.049,30.806-7.554-7.56-4.188-4.187,4.188-4.188,7.554-7.548,1.736-1.737h32.2a34.3,34.3,0,0,0,20.331-6.659,34.79,34.79,0,0,0,12.58-17.5l2.125-6.7,6.23,3.237a44.869,44.869,0,0,1,6.013,3.723,46.407,46.407,0,0,1,5.367,4.612l.011-.021,28.586,28.592,4.188,4.188-4.187,4.188-28.586,28.593a45.868,45.868,0,0,1-5.378,4.591,46.438,46.438,0,0,1-6.013,3.733l-6.23,3.226-2.125-6.7a34.808,34.808,0,0,0-12.58-17.487,34.231,34.231,0,0,0-20.331-6.659h-32.2Zm5.014-11.747,1.625,1.634h27.3a46.068,46.068,0,0,1,27.32,8.975,46.887,46.887,0,0,1,14,16.442,35.138,35.138,0,0,0,2.958-2.648l24.394-24.4-24.394-24.394v-.031a35.427,35.427,0,0,0-2.958-2.627,46.807,46.807,0,0,1-14,16.452,46.068,46.068,0,0,1-27.32,8.975h-27.3Z" transform="translate(-97.089 0)"/>
    <path id="Path_13" data-name="Path 13" d="M4204.763,2277.052h-34.507v34.507a34.627,34.627,0,0,0,34.507,34.507h34.507v-34.507a34.617,34.617,0,0,0-34.507-34.507m-40.433-11.85h40.433a46.472,46.472,0,0,1,46.358,46.357v46.347h-46.358a46.471,46.471,0,0,1-46.358-46.347V2265.2Zm-21.032,46.357v-34.507h-34.507a34.617,34.617,0,0,0-34.509,34.507v34.507h34.509a34.629,34.629,0,0,0,34.507-34.507Zm11.85-40.432v40.432a46.469,46.469,0,0,1-46.356,46.347h-46.353v-46.347a46.462,46.462,0,0,1,46.353-46.357h46.356Zm0-55.541v46.358h-46.356a46.48,46.48,0,0,1-46.353-46.358v-46.357h46.353a46.462,46.462,0,0,1,46.356,46.357Zm-11.85,34.508v-34.508a34.626,34.626,0,0,0-34.507-34.506h-34.509v34.506a34.636,34.636,0,0,0,34.509,34.508Zm61.465,11.85H4158.4v-46.358a46.472,46.472,0,0,1,46.358-46.357h46.358v46.357a46.49,46.49,0,0,1-46.358,46.358Zm-34.507-11.85h34.507a34.636,34.636,0,0,0,34.507-34.508V2181.08h-34.507a34.625,34.625,0,0,0-34.507,34.506Z" transform="translate(-174.239 -174.227)"/>
    <path id="Path_14" data-name="Path 14" d="M4709.325,2415.26,4694.2,2400.13l-4.194-4.187,4.194-4.188,15.123-15.128a27.3,27.3,0,1,1,0,38.633m-2.56-19.317,10.939,10.94a15.439,15.439,0,1,0,0-21.881Z" transform="translate(-590.811 -306.603)"/>
    <path id="Path_15" data-name="Path 15" d="M4220.683,2091.678a12.941,12.941,0,1,1-18.3,0,12.939,12.939,0,0,1,18.3,0M4003.2,2309.164a12.944,12.944,0,1,1-18.309,0A12.946,12.946,0,0,1,4003.2,2309.164Z" transform="translate(-120.25 -120.232)" fill-rule="evenodd"/>
    <path id="Path_16" data-name="Path 16" d="M3984.888,2091.678a12.944,12.944,0,1,1,0,18.3,12.944,12.944,0,0,1,0-18.3m217.5,217.486a12.941,12.941,0,1,1,0,18.3A12.951,12.951,0,0,1,4202.384,2309.164Z" transform="translate(-120.25 -120.232)" fill-rule="evenodd"/>
  </g>
</svg>
