<?xml version="1.0" encoding="UTF-8"?>
<!DOCTYPE svg PUBLIC "-//W3C//DTD SVG 1.1//EN" "http://www.w3.org/Graphics/SVG/1.1/DTD/svg11.dtd">
<!-- Creator: CorelDRAW X7 -->
<svg xmlns="http://www.w3.org/2000/svg" xml:space="preserve" width="11.1111in" height="8.33333in" version="1.1" style="shape-rendering:geometricPrecision; text-rendering:geometricPrecision; image-rendering:optimizeQuality; fill-rule:evenodd; clip-rule:evenodd"
viewBox="0 0 11111 8333"
 xmlns:xlink="http://www.w3.org/1999/xlink">
 <defs>
  <style type="text/css">
   <![CDATA[
    .fil0 {fill:#282829}
    .fil1 {fill:#FEFEFE;fill-rule:nonzero}
    .fil2 {fill:#282829;fill-rule:nonzero}
   ]]>
  </style>
 </defs>
 <g id="Layer_x0020_1">
  <metadata id="CorelCorpID_0Corel-Layer"/>
  <g id="_1628976490448">
   <path class="fil0" d="M3643 6387c-171,108 -189,139 -3,152 222,15 445,2 668,-39 561,-101 450,-243 1038,-65 316,95 654,147 1005,147 1762,0 3191,-1300 3191,-2904 0,-1604 -1429,-2905 -3191,-2905 -1762,0 -3191,1301 -3191,2905 0,712 282,1365 750,1870 335,362 152,575 -267,839z"/>
   <g>
    <path class="fil1" d="M4710 4159c210,0 406,-2 602,0 111,1 170,48 180,135 13,110 -51,182 -170,184 -224,2 -449,1 -673,1 -65,0 -130,2 -195,-2 -80,-4 -159,-20 -198,-103 -38,-84 -11,-158 42,-226 214,-273 429,-546 644,-818 13,-17 25,-33 37,-49 -13,-24 -34,-13 -50,-14 -150,0 -301,1 -451,-1 -34,0 -70,-3 -103,-11 -70,-19 -112,-75 -113,-141 0,-67 41,-123 111,-143 32,-9 68,-13 102,-13 248,-1 496,-1 743,0 44,0 88,1 131,16 93,33 135,119 97,211 -34,80 -87,147 -139,215 -182,231 -364,461 -546,692 -14,18 -28,36 -51,67z"/>
    <path class="fil1" d="M6321 3428c34,-43 68,-83 125,-95 109,-22 212,49 214,160 3,277 2,555 0,833 0,76 -47,134 -115,157 -72,24 -146,7 -194,-54 -24,-29 -34,-34 -66,-8 -127,103 -269,120 -424,70 -247,-80 -349,-273 -376,-509 -28,-253 56,-471 283,-604 188,-111 380,-102 553,50zm-491 507c-1,-196 105,-314 258,-305 68,4 123,33 164,89 78,105 79,279 1,384 -90,121 -274,121 -364,0 -42,-56 -57,-120 -59,-168z"/>
    <path class="fil1" d="M7284 3943c-11,-357 223,-623 556,-633 353,-11 613,227 623,573 11,351 -204,600 -536,634 -361,36 -648,-227 -643,-574zm349 -34l0 0c0,72 16,138 59,195 88,118 271,119 360,3 81,-105 81,-283 1,-389 -41,-56 -96,-84 -165,-88 -150,-8 -254,107 -255,279z"/>
    <path class="fil1" d="M7162 3667c0,215 1,430 0,645 -1,123 -110,207 -227,177 -70,-18 -122,-92 -122,-179 -1,-368 -1,-735 -1,-1103 0,-65 0,-130 1,-195 2,-106 70,-176 172,-177 105,-1 176,69 177,179 1,218 0,435 0,653z"/>
    <path class="fil2" d="M5830 3935c-1,-196 105,-314 258,-305 68,4 123,33 164,89 78,105 79,279 1,384 -90,121 -274,121 -364,0 -42,-56 -57,-120 -59,-168z"/>
    <path class="fil2" d="M7633 3909c1,-172 105,-287 255,-279 69,4 124,32 165,88 80,106 80,284 -1,389 -89,116 -272,115 -360,-3 -43,-57 -59,-123 -59,-195z"/>
   </g>
  </g>
 </g>
</svg>
