<?xml version="1.0" encoding="UTF-8"?>
<!DOCTYPE svg PUBLIC "-//W3C//DTD SVG 1.1//EN" "http://www.w3.org/Graphics/SVG/1.1/DTD/svg11.dtd">
<!-- Creator: CorelDRAW X7 -->
<svg xmlns="http://www.w3.org/2000/svg" xml:space="preserve" width="11.1111in" height="8.33333in" version="1.1" style="shape-rendering:geometricPrecision; text-rendering:geometricPrecision; image-rendering:optimizeQuality; fill-rule:evenodd; clip-rule:evenodd"
viewBox="0 0 11111 8333"
 xmlns:xlink="http://www.w3.org/1999/xlink">
 <defs>
  <style type="text/css">
   <![CDATA[
    .fil0 {fill:#282829}
    .fil1 {fill:#FEFEFE;fill-rule:nonzero}
    .fil2 {fill:#282829;fill-rule:nonzero}
   ]]>
  </style>
 </defs>
 <g id="Layer_x0020_1">
  <metadata id="CorelCorpID_0Corel-Layer"/>
  <g id="_1628979234688">
   <path class="fil0" d="M80 129c-2,1 -2,1 0,1 2,0 4,0 6,0 5,-1 4,-3 10,-1 3,1 6,2 9,2 17,0 30,-14 30,-30 0,-17 -13,-30 -30,-30 -16,0 -30,13 -30,30 0,7 3,14 7,19 3,4 2,6 -2,9z"/>
   <g>
    <path class="fil1" d="M90 106c2,0 4,0 5,0 1,0 2,0 2,1 0,1 0,2 -1,2 -3,0 -5,0 -7,0 0,0 -1,0 -2,0 0,0 -1,0 -2,-1 0,-1 0,-2 1,-2 2,-3 4,-6 6,-9 0,0 0,0 0,0 0,-1 0,0 0,0 -2,0 -3,0 -4,0 -1,0 -1,-1 -1,-1 -1,0 -1,0 -1,-1 0,-1 0,-1 1,-2 0,0 0,0 1,0 2,0 4,0 7,0 0,0 0,0 1,0 1,1 1,2 1,3 -1,0 -1,1 -2,2 -1,2 -3,5 -5,7 0,0 0,0 0,1z"/>
    <path class="fil1" d="M105 98c0,0 1,-1 1,-1 1,0 2,1 2,2 0,3 0,6 0,8 0,1 0,2 -1,2 -1,0 -1,0 -2,0 0,-1 0,-1 0,-1 -2,1 -3,2 -4,1 -3,-1 -4,-3 -4,-5 0,-3 1,-5 3,-6 1,-1 3,-1 5,0zm-5 5c0,-2 1,-3 3,-3 0,0 1,1 1,1 1,1 1,3 0,4 -1,1 -2,1 -3,0 -1,0 -1,-1 -1,-2z"/>
    <path class="fil1" d="M114 103c0,-3 2,-6 5,-6 4,0 6,2 6,6 0,4 -2,6 -5,6 -3,1 -6,-2 -6,-6zm3 0l0 0c0,1 0,2 1,2 1,1 2,1 3,0 1,-1 1,-3 0,-4 0,0 -1,-1 -1,-1 -2,0 -3,1 -3,3z"/>
    <path class="fil1" d="M113 101c0,2 0,4 0,6 0,2 -1,2 -2,2 -1,0 -1,-1 -1,-2 0,-4 0,-7 0,-11 0,-1 0,-1 0,-2 0,-1 0,-2 1,-2 1,0 2,1 2,2 0,2 0,4 0,7z"/>
    <path class="fil2" d="M100 103c0,-2 1,-3 3,-3 0,0 1,1 1,1 1,1 1,3 0,4 -1,1 -2,1 -3,0 -1,0 -1,-1 -1,-2z"/>
    <path class="fil2" d="M117 103c0,-2 1,-3 3,-3 0,0 1,1 1,1 1,1 1,3 0,4 -1,1 -2,1 -3,0 -1,0 -1,-1 -1,-2z"/>
   </g>
  </g>
 </g>
</svg>
